<svg width="30" height="24" fill="none" xmlns="http://www.w3.org/2000/svg"><g clip-path="url(#clip0_2_22)" stroke="#fff" stroke-width="1.34" stroke-miterlimit="10"><path d="M29.369 4.07v17.343c0 1.063-.81 1.925-1.81 1.925H2.432c-.999 0-1.81-.852-1.81-1.925V4.07c0-1.063.811-1.925 1.81-1.925h1.847v-.892c0-.33.245-.591.556-.591H9.27c.311 0 .556.26.556.591v.892H27.55c.999 0 1.81.862 1.81 1.925h.009z"/><path d="M15 19.288c3.398 0 6.153-2.93 6.153-6.546S18.398 6.195 15 6.195c-3.398 0-6.153 2.931-6.153 6.547 0 3.615 2.755 6.546 6.153 6.546z"/></g><defs><clipPath id="clip0_2_22"><path fill="#fff" d="M0 0h30v24H0z"/></clipPath></defs></svg>