<?xml version="1.0" encoding="utf-8"?><svg viewBox="0 0 642 122" xmlns="http://www.w3.org/2000/svg" xmlns:xlink="http://www.w3.org/1999/xlink"><style>:root>svg{display:none}:root>svg:target{display:block}</style><svg fill="none" viewBox="0 0 11 9" id="check" xmlns="http://www.w3.org/2000/svg"><path d="M10 .5 4.5 8 1 4" stroke="#C3242D" stroke-linecap="round" stroke-linejoin="round"/></svg><svg fill="none" viewBox="0 0 35 35" id="done" xmlns="http://www.w3.org/2000/svg"><rect width="35" height="35" rx="17.5" fill="#24A30A"/><path d="m8 17.81 8 6.69L27.5 12" stroke="#fff" stroke-width="3" stroke-linecap="round" stroke-linejoin="round"/></svg><svg fill="none" viewBox="0 0 35 35" id="error" xmlns="http://www.w3.org/2000/svg"><rect width="35" height="35" rx="17.5" fill="#DD3614"/><path d="M24.142 24.142 10 10M9.858 24.142 24 10" stroke="#fff" stroke-width="3" stroke-linecap="round" stroke-linejoin="round"/></svg><svg fill="none" viewBox="0 0 642 122" id="logo" xmlns="http://www.w3.org/2000/svg"><path d="M277.642 117.829c-19.575 0-34.235-9.765-39.235-26.154a56.064 56.064 0 0 1 6.864-50.694c7.457-11.039 17.202-14.053 29.659-15.2h4.237c9.83 0 23.219 3.058 28.43 11.719a10.6 10.6 0 0 1 1.332 8.37 10.58 10.58 0 0 1-5.23 6.66 13.325 13.325 0 0 1-7.076 1.953 13.006 13.006 0 0 1-10.338-4.713 12.706 12.706 0 0 0-7.203-4.246c-.64-.145-1.293-.23-1.949-.254a8.077 8.077 0 0 0-3.925 1.235 8.108 8.108 0 0 0-2.812 3.01 43.696 43.696 0 0 0-3.94 21.229c.297 13.544 5.635 22.163 14.66 23.691h1.229c2.033 0 3.177-1.104 5.126-3.227a27.744 27.744 0 0 1 2.204-2.25 15.996 15.996 0 0 1 10.762-3.821 14.044 14.044 0 0 1 6.779 1.57 12.392 12.392 0 0 1 6.313 8.153 11.181 11.181 0 0 1-2.203 9.468c-4.492 5.731-10.296 11.463-27.456 13.204-2.119.17-4.237.297-6.228.297Zm-231.042 0c-19.575 0-34.235-9.765-39.235-26.154a56.068 56.068 0 0 1-2.687-26.179 56.026 56.026 0 0 1 9.551-24.515c7.457-11.039 17.202-14.053 29.66-15.2h4.236c9.83 0 23.176 3.058 28.43 11.719a10.585 10.585 0 0 1-3.898 15.03 13.538 13.538 0 0 1-7.076 1.953A12.943 12.943 0 0 1 55.074 49.6a12.706 12.706 0 0 0-7.246-4.245 9.812 9.812 0 0 0-1.906-.255 8.04 8.04 0 0 0-3.929 1.23 8.06 8.06 0 0 0-2.808 3.016 43.683 43.683 0 0 0-3.94 21.228c.296 13.544 5.635 22.205 14.66 23.691h1.186c2.076 0 3.22-1.104 5.169-3.227a27.701 27.701 0 0 1 2.203-2.25 15.996 15.996 0 0 1 10.762-3.82 14.17 14.17 0 0 1 6.78 1.57 12.377 12.377 0 0 1 4.184 3.41 12.408 12.408 0 0 1 2.34 4.87 11.189 11.189 0 0 1-2.033 9.51c-4.492 5.731-10.296 11.463-27.456 13.204-2.203.17-4.449.297-6.44.297Zm516.317-.849a21.154 21.154 0 0 1-4.576-.51 10.517 10.517 0 0 1-7.161-5.137 13.398 13.398 0 0 1-.932-10.954c1.483-4.925 9.999-29.083 13.135-36.895 5.338-12.737 11.906-28.022 13.728-31.037a18.819 18.819 0 0 1 6.398-5.868 18.782 18.782 0 0 1 8.346-2.368c2.819-.07 5.616.505 8.178 1.682a18.515 18.515 0 0 1 6.609 5.11 358.649 358.649 0 0 1 17.245 34.646 364.314 364.314 0 0 1 13.177 36.853 12.5 12.5 0 0 1-2.452 8.585 12.461 12.461 0 0 1-7.547 4.747 21.172 21.172 0 0 1-4.619.509 16.035 16.035 0 0 1-8.635-2.106 16.073 16.073 0 0 1-6.194-6.385 22.903 22.903 0 0 1-1.907-5.647c-.339-1.316-.72-2.845-1.271-4.586H579.187c-.932 3.949-2.246 9.256-2.627 10.53a13.84 13.84 0 0 1-5.389 6.637 13.787 13.787 0 0 1-8.254 2.194ZM591.94 76.9h7.203l-.72-1.953c-.297-.849-.509-1.57-.678-2.08-.678-1.868-2.754-8.025-4.619-13.502-.423-1.358-.889-2.632-1.271-3.82-2.415 6.92-5.508 15.92-7.245 21.228l7.33.127Zm-241.804 39.868h-1.695c-9.109-.68-12.711-6.709-12.711-12.355.382-7.388.551-21.23.551-28.362v-29.72h-8.474c-4.237 0-7.541 0-9.787-.34a9.355 9.355 0 0 1-5.565-2.121 9.387 9.387 0 0 1-3.163-5.054 15.48 15.48 0 0 1 .254-6.75c.678-2.803 3.135-6.454 10.72-6.921 7.584-.467 19.447-.467 26.142-.467h38.514c2.246.075 4.421.812 6.252 2.118a11.466 11.466 0 0 1 4.044 5.227 10.822 10.822 0 0 1 3.76-4.948 10.792 10.792 0 0 1 5.857-2.058 11.205 11.205 0 0 1-3.827-4.125 11.231 11.231 0 0 1-1.342-5.47 12.024 12.024 0 0 1 4.182-7.964 11.977 11.977 0 0 1 8.529-2.82 12.687 12.687 0 0 1 9.406 4.246 9.912 9.912 0 0 1 2.627 7.727 10.958 10.958 0 0 1-4.576 7.982h12.33a12.706 12.706 0 0 1-2.33-1.953 10.1 10.1 0 0 1-2.712-7.388 11.727 11.727 0 0 1 3.611-7.848 11.681 11.681 0 0 1 7.998-3.233h1.229c9.406 1.274 12.287 7.048 11.863 12.058a10.141 10.141 0 0 1-5.042 8.491c5.17.297 10.889 1.444 11.906 9.85.021.17.021.34 0 .51.19.953.19 1.934 0 2.887a10.534 10.534 0 0 1-3.81 6.244 10.495 10.495 0 0 1-6.952 2.247c-1.949 0-3.855.255-5.762.34l-5.211.297h-15.423v3.015c0 1.188 0 3.736-.254 5.095h18.219a11.08 11.08 0 0 1 8.422 3.001 11.15 11.15 0 0 1 3.484 8.25 10.036 10.036 0 0 1-3.093 7.125 9.998 9.998 0 0 1-7.245 2.767c-2.458 0-5.763 0-9.11.213-3.347.212-7.881 0-10.465.254a108.376 108.376 0 0 0 .593 16.983c.196.034.397.034.593 0H452.205c1.815.07 3.587.578 5.165 1.48a11.323 11.323 0 0 1 3.902 3.7 12.164 12.164 0 0 1 0 12.015 12.328 12.328 0 0 1-10.804 5.223H407.42c-11.525 0-13.516-6.242-13.94-12.355-.593-9.68-.381-19.234 0-28.49 0-4.67 0-9.297.297-13.925 0-5.605.381-11.336.297-16.983v-1.91a11.018 11.018 0 0 1-8.051 3.693c-1.694 0-5.042.255-8.262.255l-4.915.127H368.44v2.718c.296 2.929.254 13.798 0 23.733v30.357a11.695 11.695 0 0 1-3.014 8.951 11.623 11.623 0 0 1-8.638 3.786h-2.542c-1.441.51-2.585.595-4.11.595Zm-168.377 0a19.719 19.719 0 0 1-3.728-.425 12.195 12.195 0 0 1-8.474-5.689 11.354 11.354 0 0 1-.551-9.341c1.906-6.793 5.72-13.713 13.982-25.474.322-.55.456-1.192.381-1.826a7.973 7.973 0 0 0-1.568-2.42c-1.652-2.165-4.237-5.222-7.202-8.491-2.204-2.463-4.492-5.053-6.525-7.515l-3.263-4.246c-2.881-3.609-5.127-6.496-7.415-9.977a11.191 11.191 0 0 1-.635-10.7 9.934 9.934 0 0 1 3.118-4.121 9.902 9.902 0 0 1 4.763-1.993 26.447 26.447 0 0 1 3.559-.254 16.919 16.919 0 0 1 13.261 6.198 115.144 115.144 0 0 1 8.051 10.615c2.118 3.014 4.237 6.114 5.847 7.897a36.045 36.045 0 0 1 2.457 3.1c.381.551.763 1.06 1.187 1.57 1.61-2.25 3.813-6.029 5.592-9.213.721-1.231 1.398-2.463 2.076-3.566.975-1.741 5.975-10.105 7.839-12.44a14.905 14.905 0 0 1 11.355-4.798 15.058 15.058 0 0 1 3.983.51 11.22 11.22 0 0 1 7.414 5.816 11.818 11.818 0 0 1 0 9.808 89.685 89.685 0 0 1-5.72 10.062c-1.44 2.335-2.796 4.543-3.643 6.114-2.924 5.264-6.144 10.105-9.237 14.732-3.093 4.628-5.339 8.025-7.457 11.804-1.313 2.462-2.5 4.84-3.644 7.09a91.92 91.92 0 0 1-11.736 19.106 17.804 17.804 0 0 1-14.067 7.897v.17Zm-81.35 0c-9.364-.765-13.177-4.543-12.71-12.738.423-10.232.762-19.445.762-28.404 0-7.727 0-15.539-.212-23.096v-7.727a29.179 29.179 0 0 1 2.458-13.757 12.725 12.725 0 0 1 5.213-5.311 12.69 12.69 0 0 1 7.286-1.482h6.948c3.347 0 6.568.255 10.296.255H139.813c5.593.297 11.143 1.74 12.711 10.062.207 1.59.292 3.195.254 4.798a11.222 11.222 0 0 1-3.404 7.555 11.176 11.176 0 0 1-7.654 3.144c-1.865 0-3.771.255-5.72.34l-5.296.297h-10.889v25.347c-.212 5.604-.212 21.229-.212 26.324 0 4.245 0 13.756-9.957 13.756H101.85l-1.441.637Zm381.327 0h-3.643a10.075 10.075 0 0 1-7.072-2.9 10.112 10.112 0 0 1-3.012-7.035l.169-9.256c.339-11.888.72-25.474.89-34.815 0-2.547 0-9.213-.339-14.605 0-3.864-.254-7.388-.254-9.129a22.436 22.436 0 0 1 .678-6.538 9.635 9.635 0 0 1 2.985-5.215 9.608 9.608 0 0 1 5.489-2.427h6.313c2.076 0 5.931 0 8.474.34a9.059 9.059 0 0 1 5.836 2.642 9.095 9.095 0 0 1 2.638 5.849v24.285h16.058V44.421c0-1.572 0-4.246.339-6.836 0-1.444 0-2.972.254-4.246 0-3.014 1.822-6.835 8.474-7.94a31.839 31.839 0 0 1 5.381-.254h7.372a9.858 9.858 0 0 1 7.202 2.985 9.89 9.89 0 0 1 2.797 7.29c0 9-.212 29.72-.423 34.73v8.916c0 8.491.381 20.337-.255 27.767a9.519 9.519 0 0 1-3.048 6.745 9.477 9.477 0 0 1-6.951 2.51H525.25a9.314 9.314 0 0 1-6.151-2.785 9.349 9.349 0 0 1-2.662-6.216c-.381-4.627-.381-19.36-.381-29.168h-16.101v28.956a9.57 9.57 0 0 1-3.352 6.976 9.523 9.523 0 0 1-7.409 2.195h-7.712l.254.722Z" fill="#E30613"/><path d="M438.68 8.47h.804c4.785.634 8.469 2.836 8.045 7.452-.423 4.616-3.768 6.31-7.96 6.31h-.466a7.37 7.37 0 0 1-7.833-6.945 7.456 7.456 0 0 1 7.41-6.818Zm-26.168.338a7.324 7.324 0 0 1 7.833 7.157 7.663 7.663 0 0 1-8.214 6.606 7.366 7.366 0 0 1-8.468-7.242c0-3.641 4.234-6.521 8.468-6.521M225.952 27.906a9.99 9.99 0 0 1 2.837.381 6.653 6.653 0 0 1 4.652 3.817 6.644 6.644 0 0 1-.333 6.008c-1.524 3.642-7.071 11.9-9.188 15.837-5.251 9.57-11.983 18.04-16.556 26.51-5.378 9.95-8.469 17.7-14.947 25.407a13.558 13.558 0 0 1-10.543 6.31c-.953-.001-1.904-.1-2.837-.297a6.81 6.81 0 0 1-5.32-3.26 6.813 6.813 0 0 1-.439-6.225c1.736-6.183 5.166-12.704 13.381-24.222a7.075 7.075 0 0 0 1.185-4.743 10.455 10.455 0 0 0-2.498-4.574c-2.879-3.81-9.019-10.29-13.804-15.964-4.784-5.675-7.452-9.274-10.416-13.678a6.94 6.94 0 0 1-.566-6.317 6.945 6.945 0 0 1 4.8-4.143 27.103 27.103 0 0 1 3.091 0 12.702 12.702 0 0 1 10.12 4.785c3.853 4.235 10.162 14.102 13.804 18.379 1.693 1.905 3.43 4.742 5.335 6.648a2.034 2.034 0 0 0 1.524.72c.889 0 1.736-.72 2.583-1.863a120.428 120.428 0 0 0 8.807-14.229c1.144-2.032 5.928-9.951 7.453-11.857a10.792 10.792 0 0 1 8.087-3.218m-122.793.381h.932c5.97 0 10.543.466 16.471.466H139.532c5.97.339 8.045 1.736 8.807 6.521a26.49 26.49 0 0 1 0 4.235c0 3.642-2.879 6.013-7.283 6.479-3.43.296-7.283.296-10.924.635-3.642.339-7.834 0-11.644.297a3.641 3.641 0 0 0-3.091 3.641v5.082c0 5.209.211 15.499.211 20.707 0 5.209-.211 20.877-.211 26.255s0 9.486-5.717 9.486h-1.566c-2.371 0-4.023.254-6.225.254h-1.397c-7.876-.635-9.019-3.346-8.807-8.215.381-9.359.762-19.141.762-28.5 0-10.29-.212-20.538-.38-30.828a25.41 25.41 0 0 1 2.074-11.857 8.469 8.469 0 0 1 8.468-4.234m488.63 0a14.097 14.097 0 0 1 11.94 4.954 367.697 367.697 0 0 1 16.641 33.538 363.166 363.166 0 0 1 12.702 35.571 8.17 8.17 0 0 1-6.69 8.724c-1.21.259-2.446.387-3.684.381a11.897 11.897 0 0 1-10.924-6.225 109.884 109.884 0 0 1-3.26-10.587c-.212-.974-.593-1.905-2.498-1.905-7.834 0-26.591 0-27.946.339a2.37 2.37 0 0 0-2.287 1.863c-.974 4.235-2.498 10.29-2.879 11.56a9.694 9.694 0 0 1-9.569 5.463 18.043 18.043 0 0 1-3.642-.381 7.656 7.656 0 0 1-4.954-4.134 7.656 7.656 0 0 1-.042-6.453c1.567-5.039 9.95-28.922 13.041-36.545 5.716-13.89 11.856-27.821 13.38-30.362a14.69 14.69 0 0 1 11.136-6.14m0 52.552c3.981 0 7.918 0 10.628-.212 1.313 0 2.075-.932 1.694-1.906-1.143-3.768-2.075-6.182-2.456-7.41-1.355-3.811-7.283-21.512-7.876-23.121a2.365 2.365 0 0 0-2.117-1.483c-.804 0-1.609.509-2.074 1.821-.974 2.668-8.469 23.714-10.163 30.193a1.746 1.746 0 0 0 1.098 1.979c.258.096.535.129.808.096h10.458m-169.03-52.552h3.43c4.954 0 18.376 0 19.901.34 5.758.296 7.833 1.397 8.468 6.182a6.84 6.84 0 0 1 0 1.863c-.593 3.642-2.667 4.743-7.071 5.251-3.641.296-7.283.296-10.924.635H425.892c-1.823-.03-3.647.04-5.462.212a3.473 3.473 0 0 0-3.091 3.472c0 1.61-.55 8.724-.381 10.121 0 2.075 1.143 2.88 3.641 2.88 4.616 0 14.185.296 18.758.296 4.573 0 7.664 2.54 7.664 6.987 0 3.007-2.498 5.04-6.14 5.378-5.165.297-14.735 0-19.689.466a3.258 3.258 0 0 0-3.641 3.007 105.466 105.466 0 0 0 .55 18.802 4.574 4.574 0 0 0 4.785 3.641h2.498c5.378 0 13.169-.338 17.614-.338h9.189a7.072 7.072 0 0 1 5.547 3.006 7.71 7.71 0 0 1 .211 7.877 8.468 8.468 0 0 1-7.113 3.006c-7.452 0-18.927.339-25.406.339H407.558c-8.045 0-9.188-3.176-9.569-8.469-.593-9.486-.381-18.845 0-28.16 0-10.29.762-20.581.592-30.829a46.58 46.58 0 0 1 .763-9.655c.381-3.811 2.455-5.844 9.357-6.013 4.827 0 9.612-.381 14.397-.381m-40.141 0h1.779a7.113 7.113 0 0 1 7.282 6.352v2.202c-.635 3.6-3.091 4.87-6.478 5.335-2.668.297-10.12 0-12.999.297-2.879.296-3.091 0-6.14.339a2.54 2.54 0 0 0-2.286 2.667v4.235c.381 4.235 0 23.248 0 27.229v26.72a7.453 7.453 0 0 1-7.664 8.47c-2.456 0-4.446.338-6.436.338h-1.313c-6.309-.465-8.807-4.234-8.468-7.876.381-7.284.55-21.173.55-28.5V45.608c0-1.61-.762-3.345-4.234-3.345h-8.468c-3.261 0-6.987 0-9.358-.34a5.166 5.166 0 0 1-5.166-3.81 10.244 10.244 0 0 1 0-4.743c.381-1.61 1.694-3.472 6.86-3.811 8.045-.466 23.203-.466 25.871-.466h36.118m148.409 0h6.987a5.675 5.675 0 0 1 6.139 6.013c0 8.85-.211 29.643-.423 34.47-.212 4.828.804 25.62 0 36.376a5.338 5.338 0 0 1-3.358 5.303 5.333 5.333 0 0 1-2.189.371h-12.279a5.121 5.121 0 0 1-4.954-4.743c-.381-5.039-.381-21.639-.381-30.828 0-1.27-2.287-2.54-3.853-2.54-1.567 0-16.048 0-17.403.338-1.355.339-3.049.932-3.049 2.371v30.659c0 3.346-2.667 4.913-6.52 4.913h-10.882a5.895 5.895 0 0 1-5.762-3.386 5.87 5.87 0 0 1-.547-2.289c.381-13.466.931-31.633 1.143-43.532 0-4.235-.593-19.437-.593-23.714a17.336 17.336 0 0 1 .593-5.547 5.292 5.292 0 0 1 4.954-4.235h5.674a72.763 72.763 0 0 1 7.918.339 4.785 4.785 0 0 1 4.361 4.446v10.12c0 1.652-.381 12.027 0 15.5a2.572 2.572 0 0 0 .934 1.8 2.584 2.584 0 0 0 1.945.571h18.546c.762 0 2.668-.466 2.879-2.032V44.166c0-2.371.382-7.114.551-10.925 0-3.007 3.091-3.642 4.996-3.938a40.053 40.053 0 0 1 4.7 0m-251.936 1.1c9.231 0 20.748 3.007 24.813 9.656a6.393 6.393 0 0 1-2.499 9.189 9.44 9.44 0 0 1-4.869 1.313 9.057 9.057 0 0 1-7.029-3.05 16.68 16.68 0 0 0-9.739-6.563 10.075 10.075 0 0 0-2.498-.296 12.196 12.196 0 0 0-10.331 6.31c-3.811 5.843-4.785 16.938-4.573 23.544.381 16.472 7.833 25.958 18.165 27.694a10.99 10.99 0 0 0 1.947 0c5.251 0 7.368-4.234 10.12-6.521a12.066 12.066 0 0 1 7.749-2.753 9.909 9.909 0 0 1 4.7 1.017A7.405 7.405 0 0 1 309.502 95a7.407 7.407 0 0 1-1.491 6.63c-3.81 4.913-8.468 9.994-24.516 11.561-1.99 0-3.938.296-5.801.296-18.291 0-30.825-8.892-35.144-23.078a51.591 51.591 0 0 1 6.309-46.963c6.309-9.57 14.354-12.322 26.591-13.423a34.977 34.977 0 0 1 3.726 0m-230.892 0c9.23 0 20.748 3.006 24.77 9.655a6.354 6.354 0 0 1-2.455 9.189 9.442 9.442 0 0 1-4.87 1.313 9.06 9.06 0 0 1-7.029-3.05 16.936 16.936 0 0 0-9.95-6.013 10.078 10.078 0 0 0-2.498-.296 12.194 12.194 0 0 0-10.332 6.31c-3.81 5.843-4.784 16.938-4.573 23.544.381 16.473 7.834 25.959 18.165 27.695.634.059 1.272.059 1.905 0 5.293 0 7.41-4.235 10.163-6.522a12.066 12.066 0 0 1 7.79-2.922 9.99 9.99 0 0 1 4.7 1.017 7.41 7.41 0 0 1 3.05 11.687c-3.854 4.913-8.47 9.994-24.517 11.561-1.99 0-3.938.296-5.8.296-18.293 0-30.826-8.892-35.145-23.078a51.455 51.455 0 0 1 6.31-47.09c6.308-9.443 14.353-12.195 26.42-13.296a34.98 34.98 0 0 1 3.727 0M438.68.38a16.133 16.133 0 0 0-12.703 6.648l-.72-.804A16.935 16.935 0 0 0 412.554.72a16.172 16.172 0 0 0-16.937 14.99c.013 2.663.682 5.281 1.948 7.623-.773.45-1.509.959-2.202 1.524a16.934 16.934 0 0 0-10.035-4.234h-38.912c-6.733 0-19.139 0-26.337.465-9.146.593-12.703 5.082-14.1 8.47a45.303 45.303 0 0 0-26.972-8.088h-4.573c-11.686 1.185-23.585 3.938-32.392 16.642a14.995 14.995 0 0 0-5.692-15.694 14.988 14.988 0 0 0-5.317-2.473 19.647 19.647 0 0 0-5.081-.677 18.799 18.799 0 0 0-14.65 6.563 154.426 154.426 0 0 0-8.469 13.043 98.437 98.437 0 0 0-1.99 3.43l-2.286 3.98c-1.398-1.65-3.472-4.615-5.505-7.495a119.147 119.147 0 0 0-8.468-11.052 20.876 20.876 0 0 0-16.26-7.665 28.968 28.968 0 0 0-4.234.297 13.762 13.762 0 0 0-9.95 6.394 16.941 16.941 0 0 0-14.185-6.606h-7.833l-9.104.17h-2.54c-3.599 0-6.733 0-10.035-.255l-6.182-.212h-1.186a16.51 16.51 0 0 0-16.217 8.936v.254a33.542 33.542 0 0 0-2.837 15.625v7.665c0 7.495.339 15.245.212 22.782 0 4.235 0 8.47-.212 12.704a17.7 17.7 0 0 0-14.65-7.368 20.408 20.408 0 0 0-13.677 4.997c-.847.72-1.651 1.652-2.413 2.414a10.799 10.799 0 0 1-1.906 1.863h-.635c-9.654-1.651-10.967-14.228-11.094-19.522a40.528 40.528 0 0 1 3.218-18.76c.636-1.015 1.736-2.455 3.218-2.455h1.355A8.68 8.68 0 0 1 52.01 52a17.402 17.402 0 0 0 13.55 6.14 17.74 17.74 0 0 0 9.315-2.582 14.693 14.693 0 0 0 5.335-20.623c-6.224-10.29-21.17-13.89-32.095-13.89h-4.573C31.898 22.105 19.83 24.9 10.938 37.985a59.882 59.882 0 0 0-7.41 54.754c5.59 18.209 21.722 29.092 43.274 29.092 2.117 0 4.234 0 6.606-.339 18.63-1.863 25.405-8.469 30.232-14.525.89 8.088 6.436 12.704 16.471 13.424h9.866c6.478 0 14.184-3.091 14.184-17.955 0-5.082 0-20.58.212-25.958V55.05h7.029l5.081-.296c1.905 0 3.896 0 5.843-.339a16.427 16.427 0 0 0 13.338-8.47c1.948 2.796 3.938 5.294 6.309 8.47l3.133 3.896v.254c2.075 2.456 4.235 5.082 6.606 7.58 2.371 2.499 5.462 6.098 6.902 8.046a.422.422 0 0 1 0 .212l.211.254a83.465 83.465 0 0 0-13.761 25.408 15.42 15.42 0 0 0 .932 12.449 16.125 16.125 0 0 0 10.966 7.75 20.62 20.62 0 0 0 21.637-8.893 96.078 96.078 0 0 0 12.237-19.86c1.143-2.202 2.329-4.531 3.641-6.988 1.948-3.514 4.531-7.368 7.199-11.39 3.175-4.701 6.436-9.571 9.4-14.949.719-1.355 1.947-3.345 3.175-5.336a60.856 60.856 0 0 0 0 40.06C239.84 111.117 256.015 122 277.525 122c2.159 0 4.234 0 6.605-.339 18.885-1.863 25.406-8.469 30.402-14.779a15.622 15.622 0 0 0 3.26-13.127 16.93 16.93 0 0 0-8.722-11.095 18.037 18.037 0 0 0-8.807-2.202 20.41 20.41 0 0 0-13.677 4.997c-.847.72-1.651 1.652-2.413 2.414a10.795 10.795 0 0 1-1.906 1.863h-.635c-9.654-1.651-10.966-14.228-11.093-19.522a40.52 40.52 0 0 1 3.218-18.76c.635-1.015 1.736-2.455 3.218-2.455h1.355A8.679 8.679 0 0 1 282.902 52a17.412 17.412 0 0 0 13.719 6.48 17.743 17.743 0 0 0 9.316-2.584 16.011 16.011 0 0 0 6.436-7.283 15.58 15.58 0 0 0 5.335 1.524c2.512.254 5.942.381 10.289.381h4.234c0 7.919.254 20.072 0 25.154v.254c0 7.284 0 21.173-.55 28.033a16.19 16.19 0 0 0 4.546 12.028 16.19 16.19 0 0 0 11.883 4.911h2.032c1.567 0 3.049 0 4.446-.212h2.456a15.775 15.775 0 0 0 11.508-5.069 15.786 15.786 0 0 0 4.158-11.869V50.985h4.912c3.98 0 6.775 0 8.468-.254a24.898 24.898 0 0 0 3.346-.593c0 3.727 0 7.453-.297 11.391-.296 3.938-.296 9.274-.296 13.975 0 9.189-.381 18.844 0 28.668.296 4.235 1.185 16.346 18.038 16.346h43.062a16.305 16.305 0 0 0 14.565-7.495 14.87 14.87 0 0 0 12.703 7.664h11.475a13.813 13.813 0 0 0 13.52-7.476 13.807 13.807 0 0 0 1.469-5.228V82.787h7.452c0 10.544 0 20.835.381 25.196a13.677 13.677 0 0 0 12.703 12.704h13.422a13.89 13.89 0 0 0 10.247-4.954 14.912 14.912 0 0 0 8.68 5.251c1.764.406 3.568.605 5.378.593a17.994 17.994 0 0 0 18.376-11.476c.122-.226.208-.468.254-.72.339-1.101 1.186-4.235 1.948-7.538h18.715l.339 1.355a25.844 25.844 0 0 0 2.371 6.733 20.406 20.406 0 0 0 18.461 10.417 26.458 26.458 0 0 0 5.505-.592 16.56 16.56 0 0 0 13.295-17.871c-.635-5.716-11.644-33.877-13.422-38.111a353.977 353.977 0 0 0-17.826-35.233 22.483 22.483 0 0 0-17.784-8.469h-.254a22.99 22.99 0 0 0-18.207 9.994v.254c-2.244 3.727-9.612 20.877-13.973 31.506-1.609 3.98-4.446 11.73-7.114 19.225V69.956c0-5.208.424-25.831.424-34.809a14.15 14.15 0 0 0-8.592-13.35 14.148 14.148 0 0 0-5.466-1.132h-7.537a35.77 35.77 0 0 0-6.224.297 12.704 12.704 0 0 0-11.898 11.73c0 1.481 0 2.964-.254 4.234 0 2.753-.339 5.336-.339 7.114v9.274h-7.621V32.988a13.088 13.088 0 0 0-12.153-12.323 88.104 88.104 0 0 0-8.807-.381 54.278 54.278 0 0 0-7.029.296A13.801 13.801 0 0 0 465.27 31.38a25.762 25.762 0 0 0-.804 7.495c0 1.863 0 5.293.254 9.231 0 5.04.423 11.9.339 14.102v.254c0 8.893-.508 21.173-.847 32.691a16.14 16.14 0 0 0-11.348-5.886H426.57c-.254-2.964-.339-5.97-.339-8.808h5.886c3.429 0 6.69 0 9.23-.212a14.098 14.098 0 0 0 13.846-13.804 15.384 15.384 0 0 0-4.635-11.093 15.373 15.373 0 0 0-11.201-4.364h-2.244c1.694 0 3.387 0 5.081-.296 1.694-.297 3.895 0 5.843-.34 8.469-.93 13.296-4.869 14.608-11.814.247-1.4.247-2.834 0-4.234v.423a8.5 8.5 0 0 0 0-1.059 13.634 13.634 0 0 0-8.214-11.941 15.332 15.332 0 0 0 1.397-5.632c.635-6.183-3.091-14.356-15.243-16.092h-1.694l-.211.381Zm151.627 72.54c.423-1.313.889-2.668 1.355-4.235.508 1.567 1.016 2.964 1.397 4.234h-2.752Z" fill="#fff"/></svg><svg fill="none" viewBox="0 0 35 35" id="minus" xmlns="http://www.w3.org/2000/svg"><rect width="35" height="35" rx="17.5" fill="#C3242D"/><path d="M27.071 17.071h-20" stroke="#fff" stroke-width="3" stroke-linecap="round" stroke-linejoin="round"/></svg><svg fill="none" viewBox="0 0 30 24" id="photo" xmlns="http://www.w3.org/2000/svg"><g clip-path="url(#fa)" stroke="#fff" stroke-width="1.34" stroke-miterlimit="10"><path d="M29.369 4.07v17.343c0 1.063-.81 1.925-1.81 1.925H2.432c-.999 0-1.81-.852-1.81-1.925V4.07c0-1.063.811-1.925 1.81-1.925h1.847v-.892c0-.33.245-.591.556-.591H9.27c.311 0 .556.26.556.591v.892H27.55c.999 0 1.81.862 1.81 1.925h.009Z"/><path d="M15 19.288c3.398 0 6.153-2.93 6.153-6.546S18.398 6.195 15 6.195c-3.398 0-6.153 2.931-6.153 6.547 0 3.615 2.755 6.546 6.153 6.546Z"/></g><defs><clipPath id="fa"><path fill="#fff" d="M0 0h30v24H0z"/></clipPath></defs></svg><svg fill="none" viewBox="0 0 35 35" id="plus" xmlns="http://www.w3.org/2000/svg"><rect width="35" height="35" rx="17.5" fill="#C3242D"/><path d="M27.071 17.071h-20M16.929 27.071v-20" stroke="#fff" stroke-width="3" stroke-linecap="round" stroke-linejoin="round"/></svg><svg fill="none" viewBox="0 0 15 16" id="user" xmlns="http://www.w3.org/2000/svg"><g clip-path="url(#ha)"><path d="M14.84 6.773a7.294 7.294 0 0 0-2.612-4.182A7.623 7.623 0 0 0 7.5.955c-1.722 0-3.391.577-4.728 1.637A7.28 7.28 0 0 0 .16 6.773a7.174 7.174 0 0 0 .672 4.857 7.427 7.427 0 0 0 3.658 3.354c.187.08.399.082.588.006a.738.738 0 0 0 .412-.409l1.643-4.102a.722.722 0 0 0-.342-.912 1.48 1.48 0 0 1-.66-.699 1.449 1.449 0 0 1 .452-1.744 1.52 1.52 0 0 1 1.841 0c.264.2.45.48.532.797.082.316.054.649-.08.947a1.48 1.48 0 0 1-.66.7.728.728 0 0 0-.343.91l1.643 4.102a.74.74 0 0 0 .412.41c.188.076.4.074.587-.006a7.42 7.42 0 0 0 3.656-3.355 7.17 7.17 0 0 0 .672-4.856h-.002ZM7.5 2.42c1.378 0 2.713.462 3.783 1.309a5.83 5.83 0 0 1 2.09 3.345 5.735 5.735 0 0 1-.539 3.884 5.904 5.904 0 0 1-2.228 2.331L9.48 10.476a2.91 2.91 0 0 0 .764-1.02 2.863 2.863 0 0 0 .163-1.896 2.922 2.922 0 0 0-1.064-1.595A3.043 3.043 0 0 0 7.5 5.348a3.05 3.05 0 0 0-1.844.617c-.526.4-.9.963-1.064 1.595-.163.633-.106 1.3.162 1.895.178.393.44.741.765 1.02L4.393 13.29a5.908 5.908 0 0 1-2.23-2.331 5.736 5.736 0 0 1-.537-3.884 5.834 5.834 0 0 1 2.09-3.347 6.077 6.077 0 0 1 3.782-1.309" fill="#fff"/></g><defs><clipPath id="ha"><path fill="#fff" transform="translate(0 .955)" d="M0 0h15v14.091H0z"/></clipPath></defs></svg></svg>