<svg width="15" height="16" fill="none" xmlns="http://www.w3.org/2000/svg"><g clip-path="url(#clip0_15_58)"><path d="M14.84 6.773a7.294 7.294 0 00-2.612-4.182A7.623 7.623 0 007.5.955a7.612 7.612 0 00-4.728 1.637A7.28 7.28 0 00.16 6.773a7.174 7.174 0 00.672 4.857 7.427 7.427 0 003.658 3.354c.187.08.399.082.588.006a.738.738 0 00.412-.409l1.643-4.102a.722.722 0 00-.342-.912 1.48 1.48 0 01-.66-.699 1.449 1.449 0 01.452-1.744 1.52 1.52 0 011.841 0c.264.2.45.48.532.797a1.43 1.43 0 01-.08.947 1.48 1.48 0 01-.66.7.728.728 0 00-.343.91l1.643 4.102a.74.74 0 00.412.41c.188.076.4.074.587-.006a7.42 7.42 0 003.656-3.355 7.17 7.17 0 00.672-4.856h-.002zM7.5 2.42c1.378 0 2.713.462 3.783 1.309a5.83 5.83 0 012.09 3.345 5.735 5.735 0 01-.539 3.884 5.904 5.904 0 01-2.228 2.331L9.48 10.476a2.91 2.91 0 00.764-1.02 2.863 2.863 0 00.163-1.896 2.922 2.922 0 00-1.064-1.595A3.043 3.043 0 007.5 5.348a3.05 3.05 0 00-1.844.617c-.526.4-.9.963-1.064 1.595-.163.633-.106 1.3.162 1.895.178.393.44.741.765 1.02L4.393 13.29a5.908 5.908 0 01-2.23-2.331 5.736 5.736 0 01-.537-3.884 5.834 5.834 0 012.09-3.347 6.077 6.077 0 013.782-1.309" fill="#fff"/></g><defs><clipPath id="clip0_15_58"><path fill="#fff" transform="translate(0 .955)" d="M0 0h15v14.091H0z"/></clipPath></defs></svg>